<svg width="80" height="74" viewBox="0 0 80 74" fill="none" xmlns="http://www.w3.org/2000/svg">
<path d="M76.7723 4.89014H56.6789C56.1345 2.21889 53.7672 0.202637 50.9375 0.202637H29.0625C26.2328 0.202637 23.8655 2.21889 23.3211 4.89014H3.22766C1.44797 4.89014 0 6.33795 0 8.11732V58.6837C0 60.4633 1.44797 61.9109 3.22766 61.9109H31.3548L29.7739 66.7681H26.4911C24.2473 66.7681 22.4217 68.5934 22.4217 70.837C22.4217 72.47 23.7505 73.7986 25.3836 73.7986H54.6161C56.2492 73.7986 57.578 72.4701 57.578 70.837C57.578 68.5934 55.7523 66.7681 53.5086 66.7681H50.2258L48.6448 61.9109H76.772C78.5519 61.9109 79.9997 60.4631 79.9997 58.6837V8.11732C80 6.33795 78.552 4.89014 76.7723 4.89014ZM44.6844 2.54639H50.9375C52.8759 2.54639 54.4531 4.12342 54.4531 6.06201C54.4531 8.00061 52.8759 9.57764 50.9375 9.57764H44.6844C45.4217 8.59764 45.8594 7.38014 45.8594 6.06201C45.8594 4.74389 45.4217 3.52639 44.6844 2.54639ZM40 2.54639C41.9384 2.54639 43.5156 4.12342 43.5156 6.06201C43.5156 8.00061 41.9384 9.57764 40 9.57764C38.0616 9.57764 36.4844 8.00061 36.4844 6.06201C36.4844 4.12342 38.0616 2.54639 40 2.54639ZM29.0625 2.54639H35.3156C34.5783 3.52639 34.1406 4.74389 34.1406 6.06201C34.1406 7.38014 34.5783 8.59764 35.3156 9.57764H29.0625C27.1241 9.57764 25.5469 8.00061 25.5469 6.06201C25.5469 4.12342 27.1241 2.54639 29.0625 2.54639ZM53.5088 69.112C54.4603 69.112 55.2344 69.8859 55.2344 70.8372C55.2344 71.1778 54.9572 71.455 54.6162 71.455H25.3837C25.0428 71.455 24.7656 71.1779 24.7656 70.8372C24.7656 69.8859 25.5397 69.112 26.4913 69.112H34.7352C35.3825 69.112 35.907 68.5873 35.907 67.9401C35.907 67.2929 35.3825 66.7683 34.7352 66.7683H32.2389L33.8198 61.9111H46.1803L47.7612 66.7683H40.143C39.4956 66.7683 38.9711 67.2929 38.9711 67.9401C38.9711 68.5873 39.4956 69.112 40.143 69.112H53.5088ZM77.6562 14.2634H23.5938C22.9464 14.2634 22.4219 14.7881 22.4219 15.4353C22.4219 16.0825 22.9464 16.6072 23.5938 16.6072H77.6562V50.194H68.7891C68.1417 50.194 67.6172 50.7187 67.6172 51.3659C67.6172 52.0131 68.1417 52.5378 68.7891 52.5378H77.6562V58.6837C77.6562 59.1709 77.2597 59.5672 76.7723 59.5672H3.22766C2.74031 59.5672 2.34375 59.1708 2.34375 58.6837V52.5378H63.3973C64.0447 52.5378 64.5692 52.0131 64.5692 51.3659C64.5692 50.7187 64.0447 50.194 63.3973 50.194H58.9189C58.063 47.7242 55.9762 45.8262 53.3834 45.2397C53.375 45.2376 53.3666 45.2359 53.358 45.2342L44.4739 43.432C44.3791 42.707 44.3606 41.9861 44.42 41.2248C47.5339 38.6208 49.0505 36.3136 49.0505 34.1819C49.0505 33.9508 49.0411 33.7231 49.0211 33.4905C48.9711 32.9804 48.9428 30.629 48.9527 27.772C48.9606 25.4442 48.0595 23.2536 46.4158 21.6037C44.7705 19.9525 42.5805 19.0428 40.2494 19.0425C40.2489 19.0425 40.2484 19.0425 40.248 19.0425C37.9167 19.0425 35.7264 19.9519 34.0808 21.603C32.4364 23.2528 31.5352 25.4437 31.5431 27.7722C31.553 30.6308 31.5247 32.9842 31.4736 33.507C31.4548 33.7194 31.4453 33.9464 31.4453 34.1817C31.4453 36.3106 32.9572 38.6139 36.0591 41.2104C36.1167 41.9551 36.0959 42.6598 35.9964 43.3939L26.9528 45.2336C26.9444 45.2353 26.9361 45.237 26.9277 45.239C24.3352 45.8261 22.2489 47.7243 21.3934 50.194H2.34375V16.6072H18.2302C18.8775 16.6072 19.402 16.0825 19.402 15.4353C19.402 14.7881 18.8775 14.2634 18.2302 14.2634H2.34375V8.11732C2.34375 7.63014 2.74031 7.23389 3.22766 7.23389H23.3209C23.8653 9.90514 26.2327 11.9214 29.0623 11.9214H50.9373C53.767 11.9214 56.1344 9.90514 56.6787 7.23389H76.772C77.2594 7.23389 77.6559 7.63029 77.6559 8.11732V14.2634H77.6562ZM33.8869 27.764C33.8811 26.0633 34.5395 24.4628 35.7408 23.2575C36.9436 22.0508 38.5441 21.3862 40.248 21.3862H40.2491C41.9525 21.3865 43.5531 22.0512 44.7556 23.2581C45.9566 24.4633 46.6147 26.0636 46.6089 27.7639C46.6006 30.1672 46.6173 32.9937 46.6873 33.7044C46.7002 33.8561 46.7067 34.0167 46.7067 34.1819C46.7067 35.5903 45.2275 37.5626 42.5394 39.7378C41.8967 40.2603 41.087 40.5479 40.2537 40.5479C40.2512 40.5479 40.2487 40.5479 40.2462 40.5479C39.4069 40.5483 38.6 40.2611 37.952 39.7339C35.2673 37.562 33.7889 35.5901 33.7889 34.1819C33.7889 34.0148 33.7953 33.8569 33.8069 33.7244C33.8784 32.9972 33.8952 30.1687 33.8869 27.764ZM42.1945 44.0594C42.1366 44.1219 42.078 44.1847 42.0189 44.2473C41.5064 44.7934 40.882 45.0939 40.2537 45.0939C40.2505 45.0939 40.247 45.0939 40.2436 45.0939C39.6205 45.0939 38.9947 44.7926 38.4791 44.2428C38.41 44.1695 38.3416 44.0961 38.2739 44.0228C38.3498 43.545 38.3972 43.0751 38.4192 42.6051C39.0036 42.7928 39.6164 42.8915 40.235 42.8915H40.2584C40.8703 42.8915 41.4758 42.7956 42.0531 42.6133C42.0727 43.0967 42.1186 43.5759 42.1945 44.0594ZM36.5995 45.6629C36.6569 45.7248 36.7136 45.7869 36.7717 45.8483C37.733 46.8734 38.9655 47.4375 40.2373 47.4375H40.2602C41.5366 47.4375 42.7678 46.8744 43.7261 45.8531C43.7739 45.8025 43.8206 45.7514 43.868 45.7004L52.8788 47.5284C54.3925 47.8747 55.6564 48.8654 56.3692 50.194H23.9431C24.6558 48.8651 25.9195 47.874 27.4334 47.5276L36.5995 45.6629Z" fill="#086CF9"/>
</svg>
